# Blender v2.91.0 OBJ File: 'ARROW.blend'
# www.blender.org
mtllib ARROW.mtl
o Cone
v -1.060461 -0.000000 -0.731929
v -1.060461 0.142792 -0.717865
v -1.060461 0.280097 -0.676214
v -1.060461 0.406638 -0.608577
v -1.060461 0.517552 -0.517552
v -1.060461 0.608577 -0.406638
v -1.060461 0.676214 -0.280097
v -1.060461 0.717865 -0.142792
v -1.060461 0.731929 -0.000000
v -1.060461 0.717865 0.142792
v -1.060461 0.676214 0.280097
v -1.060461 0.608577 0.406638
v -1.060461 0.517552 0.517552
v -1.060461 0.406638 0.608577
v -1.060461 0.280097 0.676215
v -1.060461 0.142792 0.717865
v -1.060461 -0.000000 0.731929
v -1.060461 -0.142793 0.717865
v -1.060461 -0.280098 0.676214
v -1.060461 -0.406639 0.608577
v -1.060461 -0.517553 0.517552
v -1.060461 -0.608577 0.406638
v -1.060461 -0.676215 0.280097
v -1.060461 -0.717866 0.142792
v -1.060461 -0.731929 -0.000001
v -1.060461 -0.717865 -0.142793
v -1.060461 -0.676214 -0.280098
v -1.060461 -0.608576 -0.406639
v -1.060461 -0.517552 -0.517553
v -1.060461 -0.406637 -0.608577
v -1.060461 -0.280096 -0.676215
v -1.060461 -0.142791 -0.717866
v -2.524319 0.000000 0.000000
v -1.060461 -0.000000 -0.338174
v 4.974219 0.000000 -0.338174
v -1.060461 -0.065975 -0.331677
v 4.974219 -0.065974 -0.331677
v -1.060461 -0.129414 -0.312432
v 4.974219 -0.129414 -0.312432
v -1.060461 -0.187880 -0.281182
v 4.974219 -0.187880 -0.281182
v -1.060461 -0.239126 -0.239125
v 4.974219 -0.239125 -0.239125
v -1.060461 -0.281182 -0.187880
v 4.974219 -0.281182 -0.187880
v -1.060461 -0.312433 -0.129414
v 4.974219 -0.312432 -0.129414
v -1.060461 -0.331677 -0.065975
v 4.974219 -0.331676 -0.065975
v -1.060461 -0.338175 -0.000000
v 4.974219 -0.338174 -0.000000
v -1.060461 -0.331677 0.065975
v 4.974219 -0.331676 0.065975
v -1.060461 -0.312433 0.129414
v 4.974219 -0.312432 0.129414
v -1.060461 -0.281182 0.187880
v 4.974219 -0.281182 0.187880
v -1.060461 -0.239126 0.239125
v 4.974219 -0.239125 0.239125
v -1.060461 -0.187880 0.281182
v 4.974219 -0.187880 0.281182
v -1.060461 -0.129414 0.312432
v 4.974219 -0.129414 0.312432
v -1.060461 -0.065975 0.331677
v 4.974219 -0.065974 0.331677
v -1.060461 0.000000 0.338174
v 4.974219 0.000000 0.338174
v -1.060461 0.065975 0.331677
v 4.974219 0.065975 0.331677
v -1.060461 0.129414 0.312432
v 4.974219 0.129414 0.312432
v -1.060461 0.187880 0.281182
v 4.974219 0.187880 0.281182
v -1.060461 0.239126 0.239125
v 4.974219 0.239126 0.239125
v -1.060461 0.281182 0.187879
v 4.974219 0.281182 0.187879
v -1.060461 0.312432 0.129414
v 4.974219 0.312433 0.129414
v -1.060461 0.331676 0.065974
v 4.974219 0.331677 0.065974
v -1.060461 0.338174 -0.000000
v 4.974219 0.338175 -0.000000
v -1.060461 0.331676 -0.065975
v 4.974219 0.331677 -0.065975
v -1.060461 0.312432 -0.129414
v 4.974219 0.312432 -0.129414
v -1.060461 0.281181 -0.187880
v 4.974219 0.281182 -0.187880
v -1.060461 0.239125 -0.239126
v 4.974219 0.239125 -0.239126
v -1.060461 0.187879 -0.281182
v 4.974219 0.187879 -0.281182
v -1.060461 0.129413 -0.312433
v 4.974219 0.129413 -0.312433
v -1.060461 0.065974 -0.331677
v 4.974219 0.065974 -0.331677
v -1.060461 -0.000000 -0.731929
v -1.060461 0.142792 -0.717865
v -1.060461 0.280097 -0.676214
v -1.060461 0.406638 -0.608577
v -1.060461 0.517552 -0.517552
v -1.060461 0.608577 -0.406638
v -1.060461 0.676214 -0.280097
v -1.060461 0.717865 -0.142792
v -1.060461 0.731929 -0.000000
v -1.060461 0.717865 0.142792
v -1.060461 0.676214 0.280097
v -1.060461 0.608577 0.406638
v -1.060461 0.517552 0.517552
v -1.060461 0.406638 0.608577
v -1.060461 0.280097 0.676215
v -1.060461 0.142792 0.717865
v -1.060461 -0.000000 0.731929
v -1.060461 -0.142793 0.717865
v -1.060461 -0.280098 0.676214
v -1.060461 -0.406639 0.608577
v -1.060461 -0.517553 0.517552
v -1.060461 -0.608577 0.406638
v -1.060461 -0.676215 0.280097
v -1.060461 -0.717866 0.142792
v -1.060461 -0.731929 -0.000001
v -1.060461 -0.717865 -0.142793
v -1.060461 -0.676214 -0.280098
v -1.060461 -0.608576 -0.406639
v -1.060461 -0.517552 -0.517553
v -1.060461 -0.406637 -0.608577
v -1.060461 -0.280096 -0.676215
v -1.060461 -0.142791 -0.717866
v 4.974219 -0.065974 -0.331677
v 4.974219 0.000000 -0.338174
v 4.974219 -0.129414 -0.312432
v 4.974219 -0.187880 -0.281182
v 4.974219 -0.239125 -0.239125
v 4.974219 -0.281182 -0.187880
v 4.974219 -0.312432 -0.129414
v 4.974219 -0.331676 -0.065975
v 4.974219 -0.338174 -0.000000
v 4.974219 -0.331676 0.065975
v 4.974219 -0.312432 0.129414
v 4.974219 -0.281182 0.187880
v 4.974219 -0.239125 0.239125
v 4.974219 -0.187880 0.281182
v 4.974219 -0.129414 0.312432
v 4.974219 -0.065974 0.331677
v 4.974219 0.000000 0.338174
v 4.974219 0.065975 0.331677
v 4.974219 0.129414 0.312432
v 4.974219 0.187880 0.281182
v 4.974219 0.239126 0.239125
v 4.974219 0.281182 0.187879
v 4.974219 0.312433 0.129414
v 4.974219 0.331677 0.065974
v 4.974219 0.338175 -0.000000
v 4.974219 0.331677 -0.065975
v 4.974219 0.312432 -0.129414
v 4.974219 0.281182 -0.187880
v 4.974219 0.239125 -0.239126
v 4.974219 0.187879 -0.281182
v 4.974219 0.129413 -0.312433
v 4.974219 0.065974 -0.331677
vt 0.250000 0.490000
vt 0.250000 0.250000
vt 0.296822 0.485388
vt 0.341844 0.471731
vt 0.383337 0.449553
vt 0.419706 0.419706
vt 0.449553 0.383337
vt 0.471731 0.341844
vt 0.485388 0.296822
vt 0.490000 0.250000
vt 0.485388 0.203178
vt 0.471731 0.158156
vt 0.449553 0.116663
vt 0.419706 0.080294
vt 0.383337 0.050447
vt 0.341844 0.028269
vt 0.296822 0.014612
vt 0.250000 0.010000
vt 0.203178 0.014612
vt 0.158156 0.028269
vt 0.116663 0.050447
vt 0.080294 0.080294
vt 0.050447 0.116663
vt 0.028269 0.158156
vt 0.014611 0.203179
vt 0.010000 0.250000
vt 0.014612 0.296822
vt 0.028269 0.341844
vt 0.050447 0.383337
vt 0.080295 0.419706
vt 0.116663 0.449553
vt 0.158156 0.471731
vt 0.985388 0.296822
vt 0.796822 0.014612
vt 0.514611 0.203179
vt 0.203179 0.485389
vt 1.000000 1.000000
vt 0.968750 0.500000
vt 1.000000 0.500000
vt 0.968750 1.000000
vt 0.937500 0.500000
vt 0.937500 1.000000
vt 0.906250 0.500000
vt 0.906250 1.000000
vt 0.875000 0.500000
vt 0.875000 1.000000
vt 0.843750 0.500000
vt 0.812500 1.000000
vt 0.812500 0.500000
vt 0.781250 0.500000
vt 0.781250 1.000000
vt 0.750000 0.500000
vt 0.750000 1.000000
vt 0.718750 0.500000
vt 0.718750 1.000000
vt 0.687500 0.500000
vt 0.687500 1.000000
vt 0.656250 0.500000
vt 0.656250 1.000000
vt 0.625000 0.500000
vt 0.625000 1.000000
vt 0.593750 0.500000
vt 0.593750 1.000000
vt 0.562500 0.500000
vt 0.562500 1.000000
vt 0.531250 0.500000
vt 0.531250 1.000000
vt 0.500000 0.500000
vt 0.500000 1.000000
vt 0.468750 0.500000
vt 0.468750 1.000000
vt 0.437500 0.500000
vt 0.437500 1.000000
vt 0.406250 0.500000
vt 0.406250 1.000000
vt 0.375000 0.500000
vt 0.375000 1.000000
vt 0.343750 0.500000
vt 0.343750 1.000000
vt 0.312500 0.500000
vt 0.312500 1.000000
vt 0.281250 0.500000
vt 0.281250 1.000000
vt 0.250000 0.500000
vt 0.250000 1.000000
vt 0.218750 0.500000
vt 0.218750 1.000000
vt 0.187500 0.500000
vt 0.187500 1.000000
vt 0.156250 0.500000
vt 0.156250 1.000000
vt 0.125000 0.500000
vt 0.093750 1.000000
vt 0.093750 0.500000
vt 0.062500 0.500000
vt 0.341844 0.471731
vt 0.028269 0.341844
vt 0.158156 0.028269
vt 0.062500 1.000000
vt 0.031250 0.500000
vt 0.031250 1.000000
vt 0.000000 0.500000
vt 0.703179 0.485389
vt 0.750000 0.490000
vt 0.796822 0.485388
vt 0.841844 0.471731
vt 0.883337 0.449553
vt 0.919706 0.419706
vt 0.949553 0.383337
vt 0.971731 0.341844
vt 0.990000 0.250000
vt 0.985388 0.203178
vt 0.971731 0.158156
vt 0.949553 0.116663
vt 0.919706 0.080294
vt 0.883337 0.050447
vt 0.841844 0.028269
vt 0.750000 0.010000
vt 0.703178 0.014612
vt 0.658156 0.028269
vt 0.616663 0.050447
vt 0.580294 0.080294
vt 0.550447 0.116663
vt 0.528269 0.158156
vt 0.510000 0.250000
vt 0.514612 0.296822
vt 0.528269 0.341844
vt 0.550447 0.383337
vt 0.580295 0.419706
vt 0.616663 0.449553
vt 0.658156 0.471731
vt 0.843750 1.000000
vt 0.125000 1.000000
vt 0.296822 0.485388
vt 0.250000 0.490000
vt 0.203179 0.485389
vt 0.158156 0.471731
vt 0.116663 0.449553
vt 0.080295 0.419706
vt 0.050447 0.383337
vt 0.014612 0.296822
vt 0.010000 0.250000
vt 0.014611 0.203179
vt 0.028269 0.158156
vt 0.050447 0.116663
vt 0.080294 0.080294
vt 0.116663 0.050447
vt 0.203178 0.014612
vt 0.250000 0.010000
vt 0.296822 0.014612
vt 0.341844 0.028269
vt 0.383337 0.050447
vt 0.419706 0.080294
vt 0.449553 0.116663
vt 0.471731 0.158156
vt 0.485388 0.203178
vt 0.490000 0.250000
vt 0.485388 0.296822
vt 0.471731 0.341844
vt 0.449553 0.383337
vt 0.419706 0.419706
vt 0.383337 0.449553
vt 0.000000 1.000000
vn -0.4472 -0.0000 -0.8944
vn -1.0000 0.0001 -0.0000
vn -0.4472 0.1745 -0.8772
vn -0.4472 0.3423 -0.8263
vn -0.4472 0.4969 -0.7437
vn -1.0000 -0.0001 -0.0001
vn -0.4472 0.6325 -0.6325
vn -1.0000 -0.0000 -0.0001
vn -0.4472 0.7437 -0.4969
vn -0.4472 0.8263 -0.3423
vn -0.4472 0.8772 -0.1745
vn -0.4472 0.8944 0.0000
vn -0.4472 0.8772 0.1745
vn -1.0000 -0.0000 0.0001
vn -0.4472 0.8263 0.3423
vn -0.4472 0.7437 0.4969
vn -1.0000 0.0001 -0.0001
vn -0.4472 0.6325 0.6325
vn -1.0000 -0.0001 0.0001
vn -0.4472 0.4969 0.7437
vn -0.4472 0.3423 0.8263
vn -0.4472 0.1745 0.8772
vn -0.4472 -0.0000 0.8944
vn -0.4472 -0.1745 0.8772
vn -0.4472 -0.3423 0.8263
vn -1.0000 -0.0001 -0.0000
vn -0.4472 -0.4969 0.7437
vn -1.0000 0.0001 0.0001
vn -0.4472 -0.6325 0.6325
vn -0.4472 -0.7437 0.4969
vn -0.4472 -0.8263 0.3423
vn -0.4472 -0.8772 0.1745
vn -0.4472 -0.8944 -0.0000
vn -0.4472 -0.8772 -0.1745
vn -0.4472 -0.8263 -0.3423
vn -0.4472 -0.7437 -0.4969
vn -0.4472 -0.6325 -0.6325
vn -0.4472 -0.4969 -0.7437
vn -0.4472 -0.3423 -0.8263
vn 1.0000 0.0000 0.0000
vn -0.4472 -0.1745 -0.8772
vn -0.0980 -0.0986 -0.9903
vn 0.0008 -0.1951 -0.9808
vn 0.0000 0.0000 -1.0000
vn -0.0980 -0.2899 -0.9520
vn 0.0007 -0.3827 -0.9239
vn 0.0000 -0.1951 -0.9808
vn -0.0980 -0.4701 -0.8772
vn 0.0008 -0.5556 -0.8315
vn 0.0000 -0.3827 -0.9239
vn -0.0980 -0.6322 -0.7686
vn 0.0007 -0.7071 -0.7071
vn 0.0000 -0.5556 -0.8315
vn -0.0980 -0.7700 -0.6305
vn 0.0007 -0.8315 -0.5556
vn 0.0000 -0.7071 -0.7071
vn -0.0980 -0.8777 -0.4691
vn 0.0000 -0.9239 -0.3827
vn -0.0980 -0.9526 -0.2879
vn 0.0007 -0.9808 -0.1951
vn -0.0980 -0.9905 -0.0965
vn 0.0007 -1.0000 -0.0000
vn 0.0000 -0.9808 -0.1951
vn -0.0980 -0.9903 0.0986
vn 0.0007 -0.9808 0.1951
vn 0.0000 -1.0000 -0.0000
vn -0.0980 -0.9520 0.2899
vn 0.0007 -0.9239 0.3827
vn 0.0000 -0.9808 0.1951
vn -0.0980 -0.8772 0.4701
vn 0.0007 -0.8315 0.5556
vn 0.0000 -0.9239 0.3827
vn -0.0980 -0.7686 0.6322
vn 0.0007 -0.7071 0.7071
vn 0.0000 -0.8315 0.5556
vn -0.0980 -0.6305 0.7700
vn 0.0007 -0.5556 0.8315
vn 0.0000 -0.7071 0.7071
vn -0.0980 -0.4682 0.8782
vn 0.0007 -0.3827 0.9239
vn 0.0000 -0.5556 0.8315
vn -0.0980 -0.2879 0.9526
vn 0.0007 -0.1951 0.9808
vn 0.0000 -0.3827 0.9239
vn -0.0980 -0.0965 0.9905
vn 0.0007 0.0000 1.0000
vn 0.0000 -0.1951 0.9808
vn -0.0980 0.0986 0.9903
vn 0.0007 0.1951 0.9808
vn 0.0000 -0.0000 1.0000
vn -0.0980 0.2899 0.9520
vn 0.0007 0.3827 0.9239
vn 0.0000 0.1951 0.9808
vn -0.0980 0.4701 0.8772
vn 0.0007 0.5556 0.8315
vn 0.0000 0.3827 0.9239
vn -0.0980 0.6322 0.7686
vn 0.0007 0.7071 0.7071
vn 0.0000 0.5556 0.8315
vn -0.0980 0.7700 0.6305
vn 0.0007 0.8315 0.5556
vn 0.0000 0.7071 0.7071
vn -0.0980 0.8782 0.4682
vn 0.0007 0.9239 0.3827
vn 0.0000 0.8315 0.5556
vn -0.0980 0.9526 0.2879
vn 0.0007 0.9808 0.1951
vn 0.0000 0.9239 0.3827
vn -0.0980 0.9905 0.0965
vn 0.0007 1.0000 -0.0000
vn 0.0000 0.9808 0.1951
vn -0.0980 0.9903 -0.0986
vn 0.0007 0.9808 -0.1951
vn 0.0000 1.0000 0.0000
vn -0.0980 0.9520 -0.2899
vn 0.0007 0.9239 -0.3827
vn 0.0000 0.9808 -0.1951
vn -0.0980 0.8772 -0.4701
vn 0.0007 0.8315 -0.5556
vn 0.0000 0.9239 -0.3827
vn -0.0980 0.7686 -0.6322
vn 0.0007 0.7071 -0.7071
vn 0.0000 0.8315 -0.5556
vn -0.0980 0.6313 -0.7693
vn 0.0000 0.5556 -0.8315
vn -0.0980 0.4682 -0.8782
vn 0.0007 0.3827 -0.9239
vn -0.0980 0.2879 -0.9526
vn 0.0007 0.1951 -0.9808
vn 0.0000 0.3827 -0.9239
vn -0.0980 0.0965 -0.9905
vn 0.0007 -0.0000 -1.0000
vn 0.0000 0.1951 -0.9808
vn -0.0007 0.0000 -1.0000
vn 0.0980 -0.0965 -0.9905
vn -0.0007 -0.1951 -0.9808
vn 0.0980 -0.2879 -0.9526
vn -0.0007 -0.3827 -0.9239
vn 0.0980 -0.4682 -0.8782
vn -0.0007 -0.5556 -0.8315
vn 0.0980 -0.6305 -0.7700
vn -0.0007 -0.7071 -0.7071
vn -0.0000 -0.8315 -0.5556
vn 0.0980 -0.7686 -0.6322
vn 0.0980 -0.8777 -0.4691
vn -0.0007 -0.9239 -0.3827
vn 0.0980 -0.9520 -0.2899
vn -0.0007 -0.9808 -0.1951
vn 0.0980 -0.9903 -0.0986
vn -0.0007 -1.0000 -0.0000
vn 0.0980 -0.9905 0.0965
vn -0.0007 -0.9808 0.1951
vn 0.0980 -0.9526 0.2879
vn -0.0007 -0.9239 0.3827
vn 0.0980 -0.8782 0.4682
vn -0.0007 -0.8315 0.5556
vn 0.0980 -0.7700 0.6305
vn -0.0007 -0.7071 0.7071
vn 0.0980 -0.6322 0.7686
vn -0.0007 -0.5556 0.8315
vn 0.0980 -0.4701 0.8772
vn -0.0007 -0.3827 0.9239
vn 0.0980 -0.2899 0.9520
vn -0.0007 -0.1951 0.9808
vn 0.0980 -0.0986 0.9903
vn -0.0007 -0.0000 1.0000
vn 0.0980 0.0965 0.9905
vn -0.0007 0.1951 0.9808
vn 0.0980 0.2879 0.9526
vn -0.0007 0.3827 0.9239
vn 0.0980 0.4682 0.8782
vn -0.0007 0.5556 0.8315
vn 0.0980 0.6305 0.7700
vn -0.0007 0.7071 0.7071
vn 0.0980 0.7686 0.6322
vn -0.0007 0.8315 0.5556
vn 0.0980 0.8772 0.4701
vn -0.0007 0.9239 0.3827
vn 0.0980 0.9520 0.2899
vn -0.0007 0.9808 0.1951
vn 0.0980 0.9903 0.0986
vn -0.0007 1.0000 -0.0000
vn 0.0980 0.9905 -0.0965
vn -0.0007 0.9808 -0.1951
vn 0.0980 0.9526 -0.2879
vn -0.0007 0.9239 -0.3827
vn 0.0980 0.8782 -0.4682
vn -0.0007 0.8315 -0.5556
vn -0.0000 0.7071 -0.7071
vn 0.0980 0.7700 -0.6305
vn 0.0980 0.6313 -0.7693
vn -0.0007 0.5556 -0.8315
vn 0.0980 0.4701 -0.8772
vn 1.0000 -0.0001 0.0000
vn 1.0000 0.0001 0.0000
vn -0.0007 0.3827 -0.9239
vn 0.0980 0.2899 -0.9520
vn -0.0007 0.1951 -0.9808
vn 0.0980 0.0986 -0.9903
usemtl None
s off
f 98/1/1 33/2/2 99/3/3
f 99/3/3 33/2/2 100/4/4
f 100/4/4 33/2/2 101/5/5
f 101/5/5 33/2/6 102/6/7
f 102/6/7 33/2/8 103/7/9
f 103/7/9 33/2/8 104/8/10
f 104/8/10 33/2/8 105/9/11
f 105/9/11 33/2/8 106/10/12
f 106/10/12 33/2/8 107/11/13
f 107/11/13 33/2/14 108/12/15
f 108/12/15 33/2/14 109/13/16
f 109/13/16 33/2/17 110/14/18
f 110/14/18 33/2/19 111/15/20
f 111/15/20 33/2/2 112/16/21
f 112/16/21 33/2/2 113/17/22
f 113/17/22 33/2/2 114/18/23
f 114/18/23 33/2/2 115/19/24
f 115/19/24 33/2/2 116/20/25
f 116/20/25 33/2/26 117/21/27
f 117/21/27 33/2/28 118/22/29
f 118/22/29 33/2/14 119/23/30
f 119/23/30 33/2/6 120/24/31
f 120/24/31 33/2/14 121/25/32
f 121/25/32 33/2/14 122/26/33
f 122/26/33 33/2/14 123/27/34
f 123/27/34 33/2/14 124/28/35
f 124/28/35 33/2/19 125/29/36
f 125/29/36 33/2/19 126/30/37
f 126/30/37 33/2/17 127/31/38
f 127/31/38 33/2/17 128/32/39
f 8/33/40 16/34/40 24/35/40
f 128/32/39 33/2/26 32/36/41
f 32/36/41 33/2/26 98/1/1
f 131/37/42 36/38/43 34/39/44
f 130/40/45 38/41/46 36/38/47
f 132/42/48 40/43/49 38/41/50
f 133/44/51 42/45/52 40/43/53
f 134/46/54 44/47/55 42/45/56
f 44/47/55 136/48/57 46/49/58
f 136/48/59 48/50/60 46/49/58
f 137/51/61 50/52/62 48/50/63
f 138/53/64 52/54/65 50/52/66
f 139/55/67 54/56/68 52/54/69
f 140/57/70 56/58/71 54/56/72
f 141/59/73 58/60/74 56/58/75
f 142/61/76 60/62/77 58/60/78
f 143/63/79 62/64/80 60/62/81
f 144/65/82 64/66/83 62/64/84
f 145/67/85 66/68/86 64/66/87
f 146/69/88 68/70/89 66/68/90
f 147/71/91 70/72/92 68/70/93
f 148/73/94 72/74/95 70/72/96
f 149/75/97 74/76/98 72/74/99
f 150/77/100 76/78/101 74/76/102
f 151/79/103 78/80/104 76/78/105
f 152/81/106 80/82/107 78/80/108
f 153/83/109 82/84/110 80/82/111
f 154/85/112 84/86/113 82/84/114
f 155/87/115 86/88/116 84/86/117
f 156/89/118 88/90/119 86/88/120
f 157/91/121 90/92/122 88/90/123
f 90/92/122 159/93/124 92/94/125
f 159/93/126 94/95/127 92/94/125
f 39/96/40 87/97/40 71/98/40
f 160/99/128 96/100/129 94/95/130
f 97/101/131 34/102/132 96/100/133
f 129/103/40 1/104/40 2/105/40
f 2/105/40 3/106/40 4/107/40
f 4/107/40 5/108/40 6/109/40
f 6/109/40 7/110/40 4/107/40
f 7/110/40 8/33/40 4/107/40
f 8/33/40 9/111/40 10/112/40
f 10/112/40 11/113/40 8/33/40
f 11/113/40 12/114/40 8/33/40
f 12/114/40 13/115/40 16/34/40
f 13/115/40 14/116/40 16/34/40
f 14/116/40 15/117/40 16/34/40
f 16/34/40 17/118/40 18/119/40
f 18/119/40 19/120/40 20/121/40
f 20/121/40 21/122/40 22/123/40
f 22/123/40 23/124/40 24/35/40
f 24/35/40 25/125/40 26/126/40
f 26/126/40 27/127/40 28/128/40
f 28/128/40 29/129/40 129/103/40
f 29/129/40 30/130/40 129/103/40
f 30/130/40 31/131/40 129/103/40
f 129/103/40 2/105/40 4/107/40
f 16/34/40 18/119/40 24/35/40
f 18/119/40 20/121/40 24/35/40
f 20/121/40 22/123/40 24/35/40
f 24/35/40 26/126/40 129/103/40
f 26/126/40 28/128/40 129/103/40
f 129/103/40 4/107/40 8/33/40
f 8/33/40 12/114/40 16/34/40
f 129/103/40 8/33/40 24/35/40
f 131/37/134 130/40/47 36/38/135
f 130/40/136 132/42/50 38/41/137
f 132/42/138 133/44/53 40/43/139
f 133/44/140 134/46/56 42/45/141
f 134/46/142 135/132/143 44/47/144
f 44/47/145 135/132/143 136/48/146
f 136/48/146 137/51/63 48/50/147
f 137/51/148 138/53/66 50/52/149
f 138/53/150 139/55/69 52/54/151
f 139/55/152 140/57/72 54/56/153
f 140/57/154 141/59/75 56/58/155
f 141/59/156 142/61/78 58/60/157
f 142/61/158 143/63/81 60/62/159
f 143/63/160 144/65/84 62/64/161
f 144/65/162 145/67/87 64/66/163
f 145/67/164 146/69/90 66/68/165
f 146/69/166 147/71/93 68/70/167
f 147/71/168 148/73/96 70/72/169
f 148/73/170 149/75/99 72/74/171
f 149/75/172 150/77/102 74/76/173
f 150/77/174 151/79/105 76/78/175
f 151/79/176 152/81/108 78/80/177
f 152/81/178 153/83/111 80/82/179
f 153/83/180 154/85/114 82/84/181
f 154/85/182 155/87/117 84/86/183
f 155/87/184 156/89/120 86/88/185
f 156/89/186 157/91/123 88/90/187
f 157/91/188 158/133/189 90/92/190
f 90/92/191 158/133/189 159/93/192
f 159/93/192 160/99/130 94/95/193
f 39/96/40 37/134/40 35/135/40
f 35/135/40 161/136/40 39/96/40
f 161/136/40 95/137/40 39/96/40
f 95/137/40 93/138/40 91/139/40
f 91/139/194 89/140/194 87/97/194
f 87/97/40 85/141/40 83/142/40
f 83/142/40 81/143/40 79/144/40
f 79/144/40 77/145/40 75/146/40
f 75/146/40 73/147/40 79/144/40
f 73/147/40 71/98/40 79/144/40
f 71/98/40 69/148/40 67/149/40
f 67/149/40 65/150/40 71/98/40
f 65/150/40 63/151/40 71/98/40
f 63/151/40 61/152/40 59/153/40
f 59/153/40 57/154/40 55/155/40
f 55/155/194 53/156/194 51/157/194
f 51/157/195 49/158/195 47/159/195
f 47/159/195 45/160/195 43/161/195
f 43/161/40 41/162/40 47/159/40
f 41/162/40 39/96/40 47/159/40
f 95/137/40 91/139/40 39/96/40
f 91/139/40 87/97/40 39/96/40
f 87/97/40 83/142/40 71/98/40
f 83/142/40 79/144/40 71/98/40
f 63/151/40 59/153/40 55/155/40
f 55/155/40 51/157/40 47/159/40
f 71/98/40 63/151/40 55/155/40
f 55/155/40 47/159/40 71/98/40
f 47/159/40 39/96/40 71/98/40
f 160/99/196 97/101/133 96/100/197
f 97/101/198 131/163/44 34/102/199
